<?xml version="1.0" encoding="UTF-8" standalone="no"?>
<svg
   width="100%"
   height="100%"
   viewBox="0 0 1600 800"
   version="1.1"
   id="svg26"
   sodipodi:docname="liquid-cheese.svg"
   inkscape:version="1.1.2 (0a00cf5339, 2022-02-04, custom)"
   xmlns:inkscape="http://www.inkscape.org/namespaces/inkscape"
   xmlns:sodipodi="http://sodipodi.sourceforge.net/DTD/sodipodi-0.dtd"
   xmlns="http://www.w3.org/2000/svg"
   xmlns:svg="http://www.w3.org/2000/svg">
  <defs
     id="defs30" />
  <sodipodi:namedview
     id="namedview28"
     pagecolor="#ffffff"
     bordercolor="#cccccc"
     borderopacity="1"
     inkscape:pageshadow="0"
     inkscape:pageopacity="1"
     inkscape:pagecheckerboard="0"
     showgrid="false"
     inkscape:zoom="0.45254834"
     inkscape:cx="886.09319"
     inkscape:cy="466.24854"
     inkscape:window-width="1366"
     inkscape:window-height="709"
     inkscape:window-x="0"
     inkscape:window-y="31"
     inkscape:window-maximized="1"
     inkscape:current-layer="svg26" />
  <rect
     fill="#684500"
     width="1600.0435"
     height="800"
     id="rect2"
     style="opacity:1;stroke-width:1.00001;fill:#ab8400"
     x="-0.086075716"
     y="0" />
  <path
     fill="#714e00"
     d="M 488.42075,685.42724 C 378.55751,659.17864 263.86954,646.65637 151.39291,662.06839 99.929071,668.93156 49.168836,682.05586 -0.08366668,702.28414 V 798.8501 H 848.06453 C 731.56728,758.87516 616.07519,716.85332 498.67331,687.83537 c -3.41752,-0.84285 -6.83504,-1.56529 -10.25256,-2.40813 z"
     id="path4"
     style="opacity:1;fill-opacity:1;stroke-width:1.10012;fill:#ab8400" />
  <path
     fill="#7a5800"
     d="M 1608.1613,-1.1498953 H -0.08366668 V 718.6501 c 49.25250268,-16.8 100.01273768,-27.8 151.47657668,-33.5 112.47663,-12.7 227.1646,-2.4 337.02784,19.4 3.41752,0.7 6.83504,1.4 10.25256,2 117.40188,24 232.89397,59 349.39122,92.2 h 760.09677 z"
     id="path6"
     style="opacity:1;fill-opacity:1;stroke-width:1.00257;fill:#ab8400" />
  <path
     fill="#846200"
     d="m 480.78158,579.8501 c 3.21649,0.8 6.43298,1.7 9.54896,2.5 197.21104,52.5 390.70301,133.5 596.55836,176.6 175.0977,36.6 351.301,29.2 521.2724,-10.2 V -1.1498953 H -0.08366668 V 573.7501 c 52.56950768,-17.6 107.04880668,-27.7 161.93016668,-30.9 107.85293,-6.6 215.70586,10.2 318.93508,37 z"
     id="path8"
     style="opacity:1;fill-opacity:1;stroke-width:1.00257;fill:#ab8400" />
  <path
     fill="#8d6d00"
     d="M -0.08366668,-1.1498953 V 428.2501 c 55.88651268,-18.4 114.08487668,-27.3 172.28324668,-27.7 103.32974,-0.8 204.24711,22.7 300.84232,54.5 3.01546,1 5.93041,2 8.94587,3 184.54611,62 367.58449,146.1 565.29813,192.1 187.662,43.7 378.2391,34.4 560.7749,-12.6 V -1.1498953 Z"
     id="path10"
     style="opacity:1;fill-opacity:1;stroke-width:1.00257;fill:#ab8400" />
  <path
     fill="#967800"
     d="m 182.65317,258.2501 c 98.70604,6 192.88888,35.2 282.74957,72.1 2.81443,1.1 5.52834,2.3 8.34277,3.4 171.88118,71.6 344.46597,158.5 534.03779,207.7 199.8245,51.8 405.4788,40.8 600.378,-14.8 V -1.1498953 H -0.08366668 V 282.0501 c 59.30403368,-19.6 121.22146668,-27.5 182.73683668,-23.8 z"
     id="path12"
     style="opacity:1;fill-opacity:1;stroke-width:1.00257;fill:#ab8400" />
  <path
     fill="#ab8400"
     d="M 1608.1613,-1.1498953 H -0.08366668 V 135.1501 c 62.62103868,-20.9 128.35805668,-27.5 193.19042668,-19.2 94.08233,12.1 181.43014,47.7 264.65682,89.6 2.61339,1.3 5.12628,2.6 7.73967,3.9 159.21626,81.1 321.34745,170.9 502.8781,223.2 211.58475,61 433.01995,49 639.88045,-16.6 V -1.1498953 Z"
     id="path14"
     style="opacity:1;fill-opacity:1;stroke-width:1.00257;fill:#ab8400" />
  <path
     fill="#c08f00"
     d="M 457.16048,85.150105 C 603.71181,175.8501 755.38941,268.1501 928.77832,323.8501 c 209.67488,67.4 433.52248,60.8 641.18718,-5.3 12.8659,-4.1 25.5309,-8.4 38.2963,-12.9 V -1.1498953 H 289.50095 C 345.78952,20.150105 398.76109,49.450105 450.0239,80.850105 c 2.41236,1.4 4.72422,2.9 7.13658,4.3 z"
     id="path16"
     style="opacity:1;fill-opacity:1;stroke-width:1.00257;fill:#ab8400" />
  <path
     fill="#d59900"
     d="M 1608.1613,-1.1498953 H 500.48258 C 619.19116,84.650105 745.23736,163.3501 889.2758,215.0501 c 192.7883,69.2 402.0612,74.7 598.0661,21.1 41.0102,-11.2 81.5179,-25.2 120.9199,-41.7 V -1.1498953 Z"
     id="path18"
     style="opacity:1;fill-opacity:1;stroke-width:1.00257;fill:#ab8400" />
  <path
     fill="#eaa200"
     d="m 1404.6178,153.6501 c 47.4432,-10.6 94.0823,-25.3 139.3142,-43.8 21.8118,-8.9 43.2216,-18.799995 64.2293,-29.499995 V -1.1498953 H 646.63184 C 709.85597,40.550105 777.0002,77.050105 849.77329,106.2501 c 175.80121,70.7 370.59991,88.7 554.84451,47.4 z"
     id="path20"
     style="opacity:1;fill-opacity:1;stroke-width:1.00257;fill:#ab8400" />
  <path
     fill="#ffaa00"
     d="m 1321.9942,71.250105 c 75.688,-12.6 149.6673,-37.1 217.9172,-72.4000003 H 813.18571 C 971.69836,69.850105 1150.5151,99.850105 1321.9942,71.250105 Z"
     id="path22"
     style="opacity:1;fill-opacity:1;stroke-width:1.00257;fill:#ab8400" />
</svg>
