<?xml version="1.0" encoding="UTF-8" standalone="no"?>
<svg
   width="100%"
   height="100%"
   viewBox="0 0 100 60"
   version="1.1"
   id="svg126"
   sodipodi:docname="radiant-gradient.svg"
   inkscape:version="1.1.2 (0a00cf5339, 2022-02-04, custom)"
   xmlns:inkscape="http://www.inkscape.org/namespaces/inkscape"
   xmlns:sodipodi="http://sodipodi.sourceforge.net/DTD/sodipodi-0.dtd"
   xmlns="http://www.w3.org/2000/svg"
   xmlns:svg="http://www.w3.org/2000/svg">
  <defs
     id="defs130" />
  <sodipodi:namedview
     id="namedview128"
     pagecolor="#ffffff"
     bordercolor="#cccccc"
     borderopacity="1"
     inkscape:pageshadow="0"
     inkscape:pageopacity="1"
     inkscape:pagecheckerboard="0"
     showgrid="false"
     inkscape:zoom="5.7275648"
     inkscape:cx="79.614988"
     inkscape:cy="23.221038"
     inkscape:window-width="1366"
     inkscape:window-height="709"
     inkscape:window-x="0"
     inkscape:window-y="31"
     inkscape:window-maximized="1"
     inkscape:current-layer="svg126"
     showguides="false" />
  <rect
     fill="#ab8300"
     width="100"
     height="60"
     id="rect2"
     x="-100"
     y="-60"
     transform="scale(-1)" />
  <rect
     fill="#ab8300"
     width="11"
     height="11"
     id="rect4"
     x="-101"
     y="0"
     transform="scale(-1,1)"
     style="fill-opacity:1;fill:#b39226" />
  <rect
     fill="#ac8506"
     x="-91"
     width="11"
     height="11"
     id="rect6"
     y="0"
     transform="scale(-1,1)"
     style="fill-opacity:1;fill:#b79933" />
  <rect
     fill="#ad870d"
     y="10"
     width="11"
     height="11"
     id="rect8"
     x="-101"
     transform="scale(-1,1)"
     style="fill-opacity:1;fill:#b79933" />
  <rect
     fill="#ae8912"
     x="-81"
     width="11"
     height="11"
     id="rect10"
     y="0"
     transform="scale(-1,1)"
     style="fill-opacity:1" />
  <rect
     fill="#af8a17"
     x="-91"
     y="10"
     width="11"
     height="11"
     id="rect12"
     transform="scale(-1,1)"
     style="fill-opacity:1" />
  <rect
     fill="#b08c1b"
     y="20"
     width="11"
     height="11"
     id="rect14"
     x="-101"
     transform="scale(-1,1)"
     style="fill-opacity:1" />
  <rect
     fill="#b18e1f"
     x="-71"
     width="11"
     height="11"
     id="rect16"
     y="0"
     transform="scale(-1,1)"
     style="fill-opacity:1" />
  <rect
     fill="#b29023"
     x="-81"
     y="10"
     width="11"
     height="11"
     id="rect18"
     transform="scale(-1,1)"
     style="fill-opacity:1" />
  <rect
     fill="#b39226"
     x="-91"
     y="20"
     width="11"
     height="11"
     id="rect20"
     transform="scale(-1,1)"
     style="fill-opacity:1" />
  <rect
     fill="#b4942a"
     y="30"
     width="11"
     height="11"
     id="rect22"
     x="-101"
     transform="scale(-1,1)"
     style="fill-opacity:1" />
  <rect
     fill="#b5952d"
     x="-61"
     width="11"
     height="11"
     id="rect24"
     y="0"
     transform="scale(-1,1)"
     style="fill-opacity:1" />
  <rect
     fill="#b69730"
     x="-71"
     y="10"
     width="11"
     height="11"
     id="rect26"
     transform="scale(-1,1)"
     style="fill-opacity:1" />
  <rect
     fill="#b79933"
     x="-81"
     y="20"
     width="11"
     height="11"
     id="rect28"
     transform="scale(-1,1)"
     style="fill-opacity:1" />
  <rect
     fill="#b89b36"
     x="-91"
     y="30"
     width="11"
     height="11"
     id="rect30"
     transform="scale(-1,1)"
     style="fill-opacity:1" />
  <rect
     fill="#b99d39"
     y="40"
     width="11"
     height="11"
     id="rect32"
     x="-101"
     transform="scale(-1,1)"
     style="fill-opacity:1" />
  <rect
     fill="#ba9f3c"
     x="-51"
     width="11"
     height="11"
     id="rect34"
     y="0"
     transform="scale(-1,1)"
     style="fill-opacity:1" />
  <rect
     fill="#bba03f"
     x="-61"
     y="10"
     width="11"
     height="11"
     id="rect36"
     transform="scale(-1,1)"
     style="fill-opacity:1" />
  <rect
     fill="#bca242"
     x="-71"
     y="20"
     width="11"
     height="11"
     id="rect38"
     transform="scale(-1,1)"
     style="fill-opacity:1" />
  <rect
     fill="#bea445"
     x="-81"
     y="30"
     width="11"
     height="11"
     id="rect40"
     transform="scale(-1,1)"
     style="fill-opacity:1" />
  <rect
     fill="#bfa648"
     x="-91"
     y="40"
     width="11"
     height="11"
     id="rect42"
     transform="scale(-1,1)"
     style="fill-opacity:1" />
  <rect
     fill="#c0a84b"
     y="50"
     width="11"
     height="11"
     id="rect44"
     x="-101"
     transform="scale(-1,1)"
     style="fill-opacity:1" />
  <rect
     fill="#c1aa4e"
     x="-41"
     width="11"
     height="11"
     id="rect46"
     y="0"
     transform="scale(-1,1)"
     style="fill-opacity:1" />
  <rect
     fill="#c2ab51"
     x="-51"
     y="10"
     width="11"
     height="11"
     id="rect48"
     transform="scale(-1,1)"
     style="fill-opacity:1" />
  <rect
     fill="#c3ad53"
     x="-61"
     y="20"
     width="11"
     height="11"
     id="rect50"
     transform="scale(-1,1)"
     style="fill-opacity:1" />
  <rect
     fill="#c4af56"
     x="-71"
     y="30"
     width="11"
     height="11"
     id="rect52"
     transform="scale(-1,1)"
     style="fill-opacity:1" />
  <rect
     fill="#c5b159"
     x="-81"
     y="40"
     width="11"
     height="11"
     id="rect54"
     transform="scale(-1,1)"
     style="fill-opacity:1" />
  <rect
     fill="#c6b35c"
     x="-91"
     y="50"
     width="11"
     height="11"
     id="rect56"
     transform="scale(-1,1)"
     style="fill-opacity:1" />
  <rect
     fill="#c7b55f"
     x="-31"
     width="11"
     height="11"
     id="rect58"
     y="0"
     transform="scale(-1,1)"
     style="fill-opacity:1" />
  <rect
     fill="#c8b662"
     x="-41"
     y="10"
     width="11"
     height="11"
     id="rect60"
     transform="scale(-1,1)"
     style="fill-opacity:1" />
  <rect
     fill="#c9b865"
     x="-51"
     y="20"
     width="11"
     height="11"
     id="rect62"
     transform="scale(-1,1)"
     style="fill-opacity:1" />
  <rect
     fill="#caba67"
     x="-61"
     y="30"
     width="11"
     height="11"
     id="rect64"
     transform="scale(-1,1)"
     style="fill-opacity:1" />
  <rect
     fill="#ccbc6a"
     x="-71"
     y="40"
     width="11"
     height="11"
     id="rect66"
     transform="scale(-1,1)"
     style="fill-opacity:1" />
  <rect
     fill="#cdbe6d"
     x="-81"
     y="50"
     width="11"
     height="11"
     id="rect68"
     transform="scale(-1,1)"
     style="fill-opacity:1" />
  <rect
     fill="#cebf70"
     x="-21"
     width="11"
     height="11"
     id="rect70"
     y="0"
     transform="scale(-1,1)"
     style="fill-opacity:1" />
  <rect
     fill="#cfc173"
     x="-31"
     y="10"
     width="11"
     height="11"
     id="rect72"
     transform="scale(-1,1)"
     style="fill-opacity:1" />
  <rect
     fill="#d0c376"
     x="-41"
     y="20"
     width="11"
     height="11"
     id="rect74"
     transform="scale(-1,1)"
     style="fill-opacity:1" />
  <rect
     fill="#d1c579"
     x="-51"
     y="30"
     width="11"
     height="11"
     id="rect76"
     transform="scale(-1,1)"
     style="fill-opacity:1" />
  <rect
     fill="#d2c77b"
     x="-61"
     y="40"
     width="11"
     height="11"
     id="rect78"
     transform="scale(-1,1)"
     style="fill-opacity:1" />
  <rect
     fill="#d4c87e"
     x="-71"
     y="50"
     width="11"
     height="11"
     id="rect80"
     transform="scale(-1,1)"
     style="fill-opacity:1" />
  <rect
     fill="#d5ca81"
     x="-11"
     width="11"
     height="11"
     id="rect82"
     y="0"
     transform="scale(-1,1)"
     style="fill-opacity:1" />
  <rect
     fill="#d6cc84"
     x="-21"
     y="10"
     width="11"
     height="11"
     id="rect84"
     transform="scale(-1,1)"
     style="fill-opacity:1" />
  <rect
     fill="#d7ce87"
     x="-31"
     y="20"
     width="11"
     height="11"
     id="rect86"
     transform="scale(-1,1)"
     style="fill-opacity:1" />
  <rect
     fill="#d8d08a"
     x="-41"
     y="30"
     width="11"
     height="11"
     id="rect88"
     transform="scale(-1,1)"
     style="fill-opacity:1" />
  <rect
     fill="#d9d18d"
     x="-51"
     y="40"
     width="11"
     height="11"
     id="rect90"
     transform="scale(-1,1)"
     style="fill-opacity:1" />
  <rect
     fill="#dbd38f"
     x="-61"
     y="50"
     width="11"
     height="11"
     id="rect92"
     transform="scale(-1,1)"
     style="fill-opacity:1" />
  <rect
     fill="#dcd592"
     x="-11"
     y="10"
     width="11"
     height="11"
     id="rect94"
     transform="scale(-1,1)"
     style="fill-opacity:1" />
  <rect
     fill="#ddd795"
     x="-21"
     y="20"
     width="11"
     height="11"
     id="rect96"
     transform="scale(-1,1)"
     style="fill-opacity:1" />
  <rect
     fill="#ded998"
     x="-31"
     y="30"
     width="11"
     height="11"
     id="rect98"
     transform="scale(-1,1)"
     style="fill-opacity:1" />
  <rect
     fill="#e0da9b"
     x="-41"
     y="40"
     width="11"
     height="11"
     id="rect100"
     transform="scale(-1,1)"
     style="fill-opacity:1" />
  <rect
     fill="#e1dc9e"
     x="-51"
     y="50"
     width="11"
     height="11"
     id="rect102"
     transform="scale(-1,1)"
     style="fill-opacity:1" />
  <rect
     fill="#e2dea1"
     x="-11"
     y="20"
     width="11"
     height="11"
     id="rect104"
     transform="scale(-1,1)"
     style="fill-opacity:1" />
  <rect
     fill="#e3e0a4"
     x="-21"
     y="30"
     width="11"
     height="11"
     id="rect106"
     transform="scale(-1,1)"
     style="fill-opacity:1" />
  <rect
     fill="#e5e2a7"
     x="-31"
     y="40"
     width="11"
     height="11"
     id="rect108"
     transform="scale(-1,1)"
     style="fill-opacity:1" />
  <rect
     fill="#e6e3aa"
     x="-41"
     y="50"
     width="11"
     height="11"
     id="rect110"
     transform="scale(-1,1)"
     style="fill-opacity:1" />
  <rect
     fill="#e7e5ac"
     x="-11"
     y="30"
     width="11"
     height="11"
     id="rect112"
     transform="scale(-1,1)"
     style="fill-opacity:1" />
  <rect
     fill="#e9e7af"
     x="-21"
     y="40"
     width="11"
     height="11"
     id="rect114"
     transform="scale(-1,1)"
     style="fill-opacity:1" />
  <rect
     fill="#eae9b2"
     x="-31"
     y="50"
     width="11"
     height="11"
     id="rect116"
     transform="scale(-1,1)"
     style="fill-opacity:1" />
  <rect
     fill="#ebeab5"
     x="-11"
     y="40"
     width="11"
     height="11"
     id="rect118"
     transform="scale(-1,1)"
     style="fill-opacity:1" />
  <rect
     fill="#edecb8"
     x="-21"
     y="50"
     width="11"
     height="11"
     id="rect120"
     transform="scale(-1,1)"
     style="fill-opacity:1" />
  <rect
     fill="#eeeebb"
     x="-11"
     y="50"
     width="11"
     height="11"
     id="rect122"
     transform="scale(-1,1)"
     style="fill-opacity:1" />
  <rect
     fill="#ab8300"
     width="11"
     height="11"
     id="rect4-2"
     x="1.7490845e-06"
     y="1.1816925e-06"
     style="fill-opacity:1;fill:#b39226" />
  <rect
     fill="#ac8506"
     x="10.000003"
     width="11"
     height="11"
     id="rect6-6"
     y="1.1816925e-06"
     style="fill-opacity:1;fill:#b79933" />
  <rect
     fill="#ad870d"
     y="10"
     width="11"
     height="11"
     id="rect8-1"
     x="1.7490845e-06"
     style="fill-opacity:1;fill:#b79933" />
  <rect
     fill="#ae8912"
     x="20.000002"
     width="11"
     height="11"
     id="rect10-8"
     y="1.1816925e-06"
     style="fill-opacity:1" />
  <rect
     fill="#af8a17"
     x="10.000003"
     y="10"
     width="11"
     height="11"
     id="rect12-7"
     style="fill-opacity:1" />
  <rect
     fill="#b08c1b"
     y="20"
     width="11"
     height="11"
     id="rect14-9"
     x="1.7490845e-06"
     style="fill-opacity:1" />
  <rect
     fill="#b18e1f"
     x="30"
     width="11"
     height="11"
     id="rect16-2"
     y="1.1816925e-06"
     style="fill-opacity:1" />
  <rect
     fill="#b29023"
     x="20.000002"
     y="10"
     width="11"
     height="11"
     id="rect18-0"
     style="fill-opacity:1" />
  <rect
     fill="#b39226"
     x="10.000003"
     y="20"
     width="11"
     height="11"
     id="rect20-2"
     style="fill-opacity:1" />
  <rect
     fill="#b4942a"
     y="30"
     width="11"
     height="11"
     id="rect22-3"
     x="1.7490845e-06"
     style="fill-opacity:1" />
  <rect
     fill="#b5952d"
     x="40"
     width="11"
     height="11"
     id="rect24-7"
     y="1.1816925e-06"
     style="fill-opacity:1" />
  <rect
     fill="#b69730"
     x="30"
     y="10"
     width="11"
     height="11"
     id="rect26-5"
     style="fill-opacity:1" />
  <rect
     fill="#b79933"
     x="20.000002"
     y="20"
     width="11"
     height="11"
     id="rect28-9"
     style="fill-opacity:1" />
  <rect
     fill="#b89b36"
     x="10.000003"
     y="30"
     width="11"
     height="11"
     id="rect30-2"
     style="fill-opacity:1" />
  <rect
     fill="#b99d39"
     y="40.000004"
     width="11"
     height="11"
     id="rect32-2"
     x="1.7490845e-06"
     style="fill-opacity:1" />
  <rect
     fill="#ba9f3c"
     x="50"
     width="11"
     height="11"
     id="rect34-8"
     y="1.1816925e-06"
     style="fill-opacity:1" />
  <rect
     fill="#bba03f"
     x="40"
     y="10"
     width="11"
     height="11"
     id="rect36-9"
     style="fill-opacity:1" />
  <rect
     fill="#bca242"
     x="30"
     y="20"
     width="11"
     height="11"
     id="rect38-7"
     style="fill-opacity:1" />
  <rect
     fill="#bea445"
     x="20.000002"
     y="30"
     width="11"
     height="11"
     id="rect40-3"
     style="fill-opacity:1" />
  <rect
     fill="#bfa648"
     x="10.000003"
     y="40.000004"
     width="11"
     height="11"
     id="rect42-6"
     style="fill-opacity:1" />
  <rect
     fill="#c0a84b"
     y="50.000004"
     width="11"
     height="11"
     id="rect44-1"
     x="1.7490845e-06"
     style="fill-opacity:1" />
  <rect
     fill="#c2ab51"
     x="50"
     y="10"
     width="11"
     height="11"
     id="rect48-2"
     style="fill-opacity:1" />
  <rect
     fill="#c3ad53"
     x="40"
     y="20"
     width="11"
     height="11"
     id="rect50-9"
     style="fill-opacity:1" />
  <rect
     fill="#c4af56"
     x="30"
     y="30"
     width="11"
     height="11"
     id="rect52-3"
     style="fill-opacity:1" />
  <rect
     fill="#c5b159"
     x="20.000002"
     y="40.000004"
     width="11"
     height="11"
     id="rect54-1"
     style="fill-opacity:1" />
  <rect
     fill="#c6b35c"
     x="10.000003"
     y="50.000004"
     width="11"
     height="11"
     id="rect56-9"
     style="fill-opacity:1" />
  <rect
     fill="#c9b865"
     x="50"
     y="20"
     width="11"
     height="11"
     id="rect62-4"
     style="fill-opacity:1" />
  <rect
     fill="#caba67"
     x="40"
     y="30"
     width="11"
     height="11"
     id="rect64-7"
     style="fill-opacity:1" />
  <rect
     fill="#ccbc6a"
     x="30"
     y="40.000004"
     width="11"
     height="11"
     id="rect66-8"
     style="fill-opacity:1" />
  <rect
     fill="#cdbe6d"
     x="20.000002"
     y="50.000004"
     width="11"
     height="11"
     id="rect68-4"
     style="fill-opacity:1" />
  <rect
     fill="#d1c579"
     x="50"
     y="30"
     width="11"
     height="11"
     id="rect76-5"
     style="fill-opacity:1" />
  <rect
     fill="#d2c77b"
     x="40"
     y="40.000004"
     width="11"
     height="11"
     id="rect78-0"
     style="fill-opacity:1" />
  <rect
     fill="#d4c87e"
     x="30"
     y="50.000004"
     width="11"
     height="11"
     id="rect80-3"
     style="fill-opacity:1" />
  <rect
     fill="#d9d18d"
     x="50"
     y="40.000004"
     width="11"
     height="11"
     id="rect90-6"
     style="fill-opacity:1" />
  <rect
     fill="#dbd38f"
     x="40"
     y="50.000004"
     width="11"
     height="11"
     id="rect92-1"
     style="fill-opacity:1" />
  <rect
     fill="#e1dc9e"
     x="50"
     y="50.000004"
     width="11"
     height="11"
     id="rect102-0"
     style="fill-opacity:1" />
</svg>
